<?xml version="1.0" encoding="utf-8"?>
<!DOCTYPE svg PUBLIC "-//W3C//DTD SVG 1.1//EN" "http://www.w3.org/Graphics/SVG/1.1/DTD/svg11.dtd">
<svg version="1.1" xmlns="http://www.w3.org/2000/svg" xmlns:xlink="http://www.w3.org/1999/xlink" x="0px" y="0px" viewBox="0 0 1000 1000" enable-background="new 0 0 1000 1000" xml:space="preserve">
    <g><g><path d="M204.9,473v75.5c0,10.2-8.3,18.6-18.6,18.6c-36.6,0-56.4,37.5-59.2,111.5h59.2c10.3,0,18.6,8.3,18.6,18.6v159.5c0,10.2-8.3,18.5-18.6,18.5H28.6c-10.3,0-18.6-8.3-18.6-18.5V697.2c0-35.5,3.6-68,10.6-96.8c7.2-29.5,18.3-55.2,32.9-76.6c15.1-21.9,33.9-39.2,56-51.1c22.2-12.1,48.1-18.2,76.9-18.2C196.6,454.5,204.9,462.8,204.9,473z M444.2,454.5c-28.8,0-54.6,6.1-76.9,18.2c-22.1,12-40.9,29.2-56,51.1c-14.6,21.4-25.7,47.1-32.9,76.6c-7,28.8-10.6,61.3-10.6,96.8v159.5c0,10.3,8.3,18.6,18.5,18.6h157.8c10.2,0,18.5-8.3,18.5-18.6V697.2c0-10.3-8.3-18.6-18.5-18.6h-58.4c2.7-74,22.3-111.5,58.4-111.5c10.2,0,18.5-8.3,18.5-18.6V473C462.8,462.8,454.5,454.5,444.2,454.5z M971.4,124.8H813.6c-10.2,0-18.6,8.3-18.6,18.6v159.5c0,10.3,8.3,18.6,18.6,18.6h59.2c-2.7,74-22.6,111.5-59.2,111.5c-10.2,0-18.6,8.3-18.6,18.6V527c0,10.2,8.3,18.6,18.6,18.6c28.8,0,54.6-6.1,76.9-18.2c22.1-12,40.9-29.2,56-51.2c14.6-21.4,25.7-47.1,32.9-76.6c7-28.8,10.6-61.3,10.6-96.8V143.3C990,133.1,981.7,124.8,971.4,124.8z M713.6,124.8H555.8c-10.2,0-18.5,8.3-18.5,18.6v159.5c0,10.3,8.3,18.6,18.5,18.6h58.4c-2.7,74-22.3,111.5-58.4,111.5c-10.2,0-18.5,8.3-18.5,18.6V527c0,10.2,8.3,18.6,18.5,18.6c28.8,0,54.6-6.1,76.9-18.2c22.1-12,40.9-29.2,56-51.2c14.6-21.4,25.7-47.1,33-76.6c7-28.7,10.6-61.3,10.6-96.8V143.3C732.2,133.1,723.9,124.8,713.6,124.8z"/></g><g></g><g></g><g></g><g></g><g></g><g></g><g></g><g></g><g></g><g></g><g></g><g></g><g></g><g></g><g></g></g>
</svg>